<?xml version="1.0" ?><!DOCTYPE svg  PUBLIC '-//W3C//DTD SVG 1.1//EN'  'http://www.w3.org/Graphics/SVG/1.1/DTD/svg11.dtd'><svg enable-background="new 0 0 800 800" height="800px" id="Layer_1" version="1.1" viewBox="0 0 800 800" width="800px" xml:space="preserve" xmlns="http://www.w3.org/2000/svg" xmlns:cc="http://creativecommons.org/ns#" xmlns:dc="http://purl.org/dc/elements/1.1/" xmlns:inkscape="http://www.inkscape.org/namespaces/inkscape" xmlns:rdf="http://www.w3.org/1999/02/22-rdf-syntax-ns#" xmlns:sodipodi="http://sodipodi.sourceforge.net/DTD/sodipodi-0.dtd" xmlns:svg="http://www.w3.org/2000/svg" xmlns:xlink="http://www.w3.org/1999/xlink"><g><path d="M539.966,23.494H260.034C129.94,23.494,23.5,129.935,23.5,260.028v279.943   c0,130.094,106.44,236.534,236.534,236.534h279.932c130.094,0,236.534-106.44,236.534-236.534V260.028   C776.5,129.935,670.06,23.494,539.966,23.494z" fill="#36A9E1"/><path d="M606.674,223.838l-50.581,0.023c-54.629,0-65.204,25.958-65.204,64.054v83.996h17.933v-64.483   c0-38.095,10.581-64.054,65.204-64.054l50.581-0.023c10.54,0,19.094-8.548,19.094-19.094v-84.669   c0-10.151-7.95-18.362-17.938-18.978v84.135C625.762,215.29,617.214,223.838,606.674,223.838z" fill="#2797C4"/><path d="M629.896,391.539c-0.023,0.569,0.047,1.126-0.023,1.707l-11.898,100.431   c-1.139,9.604-9.292,16.841-18.967,16.841H491.429l-0.371,204.6v61.389h17.862l0.441-246.477h107.585   c9.669,0,17.828-7.235,18.961-16.841l11.904-100.43C649.124,401.771,640.809,392.137,629.896,391.539z" fill="#2797C4"/><path d="M610.913,371.91H490.889v-83.996c0-38.095,10.575-64.054,65.204-64.054l50.581-0.023   c10.54,0,19.088-8.548,19.088-19.094v-84.669c0-10.546-8.56-19.094-19.094-19.094H524.24   c-100.442,0-169.206,61.307-169.206,173.903v97.016h-80.79c-10.575,0-19.141,8.606-19.1,19.175l0.395,100.419   c0.035,10.511,8.571,19.024,19.088,19.024h80.935l-0.476,265.988h135.86l0.481-265.988h107.579c9.675,0,17.828-7.236,18.967-16.841   l11.898-100.431C631.227,381.899,622.353,371.91,610.913,371.91z" fill="#FFFFFF"/></g></svg>