<?xml version="1.0" ?><!DOCTYPE svg  PUBLIC '-//W3C//DTD SVG 1.1//EN'  'http://www.w3.org/Graphics/SVG/1.1/DTD/svg11.dtd'><svg enable-background="new 0 0 800 800" height="800px" id="Layer_1" version="1.1" viewBox="0 0 800 800" width="800px" xml:space="preserve" xmlns="http://www.w3.org/2000/svg" xmlns:cc="http://creativecommons.org/ns#" xmlns:dc="http://purl.org/dc/elements/1.1/" xmlns:inkscape="http://www.inkscape.org/namespaces/inkscape" xmlns:rdf="http://www.w3.org/1999/02/22-rdf-syntax-ns#" xmlns:sodipodi="http://sodipodi.sourceforge.net/DTD/sodipodi-0.dtd" xmlns:svg="http://www.w3.org/2000/svg" xmlns:xlink="http://www.w3.org/1999/xlink"><g><linearGradient gradientUnits="userSpaceOnUse" id="SVGID_1_" x1="21.1958" x2="776.4386" y1="23.5562" y2="774.0921"><stop offset="0" style="stop-color:#FD2C7A"/><stop offset="0.5" style="stop-color:#FE5F60"/><stop offset="1" style="stop-color:#FF7256"/></linearGradient><path d="M774.5,260.773c0-129.401-105.88-235.275-235.28-235.275H260.781   C131.38,25.499,25.5,131.373,25.5,260.773v278.453c0,129.4,105.879,235.274,235.28,235.274H539.22   c129.4,0,235.28-105.874,235.28-235.274V260.773z" fill="url(#SVGID_1_)"/><path d="M525.529,120.802H274.471c-102.033,0-185.038,83.005-185.038,185.038v251.05   c0,102.032,83.005,185.044,185.038,185.044h251.059c102.021,0,185.038-83.012,185.038-185.044V305.84   C710.567,203.808,627.551,120.802,525.529,120.802L525.529,120.802z M648.08,556.891c0,67.687-54.875,122.562-122.551,122.562   H274.471c-67.681,0-122.55-54.875-122.55-122.562V305.84c0-67.681,54.869-122.55,122.55-122.55h251.059   c67.676,0,122.551,54.869,122.551,122.55V556.891z M648.08,556.891" opacity="0.15"/><path d="M400.001,270.72c-88.585,0-160.65,72.065-160.65,160.651c0,88.574,72.065,160.639,160.65,160.639   c88.571,0,160.636-72.064,160.636-160.639C560.638,342.786,488.572,270.72,400.001,270.72L400.001,270.72z M400.001,529.522   c-54.216,0-98.168-43.94-98.168-98.151c0-54.216,43.952-98.168,98.168-98.168c54.213,0,98.148,43.952,98.148,98.168   C498.149,485.582,454.215,529.522,400.001,529.522L400.001,529.522z M400.001,529.522" opacity="0.15"/><path d="M599.443,259.376c0,21.262-17.236,38.499-38.493,38.499s-38.494-17.237-38.494-38.499   c0-21.257,17.237-38.488,38.494-38.488S599.443,238.119,599.443,259.376L599.443,259.376z M599.443,259.376" opacity="0.15"/><path d="M525.529,89.431H274.471c-102.033,0-185.038,83.006-185.038,185.039v251.056   c0,102.032,83.005,185.038,185.038,185.038h251.059c102.021,0,185.038-83.006,185.038-185.038V274.469   C710.567,172.437,627.551,89.431,525.529,89.431L525.529,89.431z M648.08,525.525c0,67.687-54.875,122.556-122.551,122.556H274.471   c-67.681,0-122.55-54.869-122.55-122.556V274.469c0-67.681,54.869-122.55,122.55-122.55h251.059   c67.676,0,122.551,54.869,122.551,122.55V525.525z M648.08,525.525" fill="#FFFFFF"/><path d="M400.001,239.355c-88.585,0-160.65,72.065-160.65,160.645c0,88.58,72.065,160.645,160.65,160.645   c88.571,0,160.636-72.064,160.636-160.645C560.638,311.42,488.572,239.355,400.001,239.355L400.001,239.355z M400.001,498.157   c-54.216,0-98.168-43.946-98.168-98.157c0-54.216,43.952-98.168,98.168-98.168c54.213,0,98.148,43.952,98.148,98.168   C498.149,454.211,454.215,498.157,400.001,498.157L400.001,498.157z M400.001,498.157" fill="#FFFFFF"/><path d="M599.443,240.557c0,21.257-17.236,38.499-38.493,38.499s-38.494-17.242-38.494-38.499   s17.237-38.494,38.494-38.494S599.443,219.3,599.443,240.557L599.443,240.557z M599.443,240.557" fill="#FFFFFF"/></g></svg>