<?xml version="1.0" ?><!DOCTYPE svg  PUBLIC '-//W3C//DTD SVG 1.1//EN'  'http://www.w3.org/Graphics/SVG/1.1/DTD/svg11.dtd'><svg enable-background="new 0 0 800 800" height="800px" id="Layer_1" version="1.1" viewBox="0 0 800 800" width="800px" xml:space="preserve" xmlns="http://www.w3.org/2000/svg" xmlns:cc="http://creativecommons.org/ns#" xmlns:dc="http://purl.org/dc/elements/1.1/" xmlns:inkscape="http://www.inkscape.org/namespaces/inkscape" xmlns:rdf="http://www.w3.org/1999/02/22-rdf-syntax-ns#" xmlns:sodipodi="http://sodipodi.sourceforge.net/DTD/sodipodi-0.dtd" xmlns:svg="http://www.w3.org/2000/svg" xmlns:xlink="http://www.w3.org/1999/xlink"><g><linearGradient gradientUnits="userSpaceOnUse" id="SVGID_1_" x1="24.0068" x2="760.7183" y1="24.0063" y2="760.7178"><stop offset="0.0269" style="stop-color:#0096B9"/><stop offset="0.5" style="stop-color:#007AB9"/><stop offset="1" style="stop-color:#0096B9"/></linearGradient><path d="M772.5,261.521c0-128.709-105.314-234.024-234.024-234.024H261.524   C132.815,27.497,27.5,132.812,27.5,261.521v276.958c0,128.71,105.314,234.023,234.024,234.023h276.951   c128.71,0,234.024-105.313,234.024-234.023V261.521z" fill="url(#SVGID_1_)"/><g opacity="0.15"><path d="M644.549,479.346v180.879H539.694V491.492c0-42.379-15.122-71.324-53.111-71.324c-28.945,0-46.159,19.512-53.767,38.391    c-2.792,6.711-3.47,16.064-3.47,25.533v176.133H324.455c0,0,1.414-285.794,0-315.389h104.892v44.711    c-0.195,0.339-0.506,0.684-0.689,1.034h0.689v-1.034c13.938-21.454,38.793-52.123,94.501-52.123    C592.84,337.424,644.549,382.521,644.549,479.346L644.549,479.346z"/><g><path d="M214.791,192.823c-35.892,0-59.333,23.556-59.333,54.496c0,30.273,22.752,54.479,57.96,54.479h0.649     c36.582,0,59.339-24.206,59.339-54.479C272.711,216.379,250.648,192.823,214.791,192.823L214.791,192.823z"/><rect height="315.389" width="104.814" x="161.68" y="344.836"/></g></g><g><path d="M644.549,452.825v180.878H539.694V464.971c0-42.39-15.122-71.327-53.111-71.327    c-28.945,0-46.159,19.515-53.767,38.383c-2.792,6.711-3.47,16.076-3.47,25.544v176.133H324.455c0,0,1.414-285.805,0-315.394    h104.892v44.711c-0.195,0.345-0.506,0.684-0.689,1.034h0.689v-1.034c13.938-21.448,38.793-52.117,94.501-52.117    C592.84,310.903,644.549,356,644.549,452.825L644.549,452.825z" fill="#F1F2F2"/><g><path d="M214.791,166.302c-35.892,0-59.333,23.562-59.333,54.484c0,30.29,22.752,54.496,57.96,54.496h0.649     c36.582,0,59.339-24.206,59.339-54.496C272.711,189.864,250.648,166.302,214.791,166.302L214.791,166.302z" fill="#F1F2F2"/><rect fill="#F1F2F2" height="315.394" width="104.814" x="161.68" y="318.309"/></g></g></g></svg>