<?xml version="1.0" ?><!DOCTYPE svg  PUBLIC '-//W3C//DTD SVG 1.1//EN'  'http://www.w3.org/Graphics/SVG/1.1/DTD/svg11.dtd'><svg enable-background="new 0 0 800 800" height="800px" id="Layer_1" version="1.1" viewBox="0 0 800 800" width="800px" xml:space="preserve" xmlns="http://www.w3.org/2000/svg" xmlns:cc="http://creativecommons.org/ns#" xmlns:dc="http://purl.org/dc/elements/1.1/" xmlns:inkscape="http://www.inkscape.org/namespaces/inkscape" xmlns:rdf="http://www.w3.org/1999/02/22-rdf-syntax-ns#" xmlns:sodipodi="http://sodipodi.sourceforge.net/DTD/sodipodi-0.dtd" xmlns:svg="http://www.w3.org/2000/svg" xmlns:xlink="http://www.w3.org/1999/xlink"><g><linearGradient gradientUnits="userSpaceOnUse" id="SVGID_1_" x1="22.4414" x2="761.9823" y1="22.4414" y2="761.9823"><stop offset="0" style="stop-color:#396976"/><stop offset="0.5" style="stop-color:#395976"/><stop offset="0.8975" style="stop-color:#396576"/><stop offset="1" style="stop-color:#396976"/></linearGradient><path d="M772.5,261.52c0-128.711-105.31-234.027-234.021-234.027H261.521   C132.81,27.493,27.5,132.808,27.5,261.52v276.96c0,128.712,105.31,234.027,234.021,234.027h276.958   c128.712,0,234.021-105.315,234.021-234.027V261.52z" fill="url(#SVGID_1_)"/><path d="M424.947,315.183V213.28h-65.781c-1.482,3.741-2.212,8.256-2.212,12.807   c-0.695,2.224-1.482,3.792-1.482,6.004c-6.768,37.794-26.389,64.132-59.639,78.53c-9.836,4.562-18.92,5.257-28.659,4.562v82.155   h48.309c0.793,115.563,0.793,175.167,0.793,178.178v6.86c6.073,50.434,32.428,80.644,79.248,92.009   c18.822,5.217,39.161,7.561,59.604,7.561c26.35-0.827,52.044-5.354,77.697-13.582v-96.674c-14.99,4.55-28.664,8.354-40.747,12.077   c-23.345,6.837-42.994,2.32-58.909-12.778c-1.517-2.31-3.734-5.344-4.521-8.354c-2.212-12.088-3.638-24.89-3.638-36.943V397.298   h104.816v-82.115H424.947z M424.947,315.183" opacity="0.15"/><path d="M424.947,267.569V165.672h-65.781c-1.482,3.735-2.212,8.25-2.212,12.813   c-0.695,2.212-1.482,3.798-1.482,6.01c-6.768,37.782-26.389,64.125-59.639,78.524c-9.836,4.55-18.92,5.246-28.659,4.55v82.155   h48.309c0.793,115.58,0.793,175.185,0.793,178.195v6.859c6.073,50.423,32.428,80.645,79.248,91.998   c18.822,5.217,39.161,7.561,59.604,7.561c26.35-0.827,52.044-5.354,77.697-13.57v-96.686c-14.99,4.55-28.664,8.354-40.747,12.088   c-23.345,6.826-42.994,2.299-58.909-12.777c-1.517-2.311-3.734-5.355-4.521-8.354c-2.212-12.089-3.638-24.901-3.638-36.955V349.702   h104.816v-82.132H424.947z M424.947,267.569" fill="#FFFFFF"/></g></svg>