<?xml version="1.0" ?><!DOCTYPE svg  PUBLIC '-//W3C//DTD SVG 1.1//EN'  'http://www.w3.org/Graphics/SVG/1.1/DTD/svg11.dtd'><svg enable-background="new 0 0 800 800" height="800px" id="Layer_1" version="1.1" viewBox="0 0 800 800" width="800px" xml:space="preserve" xmlns="http://www.w3.org/2000/svg" xmlns:cc="http://creativecommons.org/ns#" xmlns:dc="http://purl.org/dc/elements/1.1/" xmlns:inkscape="http://www.inkscape.org/namespaces/inkscape" xmlns:rdf="http://www.w3.org/1999/02/22-rdf-syntax-ns#" xmlns:sodipodi="http://sodipodi.sourceforge.net/DTD/sodipodi-0.dtd" xmlns:svg="http://www.w3.org/2000/svg" xmlns:xlink="http://www.w3.org/1999/xlink"><g><path d="M766.5,263.75c0-126.638-103.613-230.257-230.252-230.257H263.751C137.113,33.493,33.5,137.112,33.5,263.75   v272.499c0,126.639,103.613,230.258,230.251,230.258h272.497c126.639,0,230.252-103.619,230.252-230.258V263.75z" fill="#7FE1F7"/><radialGradient cx="400" cy="400" gradientUnits="userSpaceOnUse" id="SVGID_1_" r="366.5034"><stop offset="0" style="stop-color:#FFFFFF;stop-opacity:0"/><stop offset="0.0852" style="stop-color:#F7F7F7;stop-opacity:0.0128"/><stop offset="0.2204" style="stop-color:#E0E0E0;stop-opacity:0.0331"/><stop offset="0.3889" style="stop-color:#BABABA;stop-opacity:0.0583"/><stop offset="0.5839" style="stop-color:#868686;stop-opacity:0.0876"/><stop offset="0.7984" style="stop-color:#444444;stop-opacity:0.1198"/><stop offset="1" style="stop-color:#000000;stop-opacity:0.15"/></radialGradient><path d="M766.5,263.75c0-126.638-103.613-230.257-230.252-230.257H263.751   C137.113,33.493,33.5,137.112,33.5,263.75v272.499c0,126.639,103.613,230.258,230.251,230.258h272.497   c126.639,0,230.252-103.619,230.252-230.258V263.75z" fill="url(#SVGID_1_)"/><path d="M676.815,209.408c-12.431,5.511-25.331,9.864-38.57,13.007c14.59-13.861,25.557-31.193,31.747-50.549   c1.764-5.523-4.234-10.3-9.226-7.343c-18.418,10.921-38.254,19.112-58.961,24.358c-1.198,0.306-2.437,0.458-3.686,0.458   c-3.771,0-7.434-1.402-10.322-3.94c-22.03-19.418-50.368-30.114-79.786-30.114c-12.73,0-25.586,1.979-38.203,5.902   c-39.096,12.125-69.271,44.376-78.735,84.167c-3.556,14.924-4.517,29.865-2.86,44.398c0.187,1.673-0.605,2.843-1.091,3.392   c-0.854,0.95-2.069,1.498-3.324,1.498c-0.136,0-0.288,0-0.424-0.017c-85.592-7.948-162.772-49.181-217.329-116.107   c-2.775-3.409-8.118-2.996-10.339,0.809c-10.673,18.333-16.32,39.299-16.32,60.623c0,32.697,13.138,63.5,35.948,85.959   c-9.599-2.272-18.881-5.856-27.502-10.65c-4.178-2.318-9.311,0.667-9.373,5.444c-0.594,48.559,27.841,91.779,70.431,111.236   c-0.854,0.012-1.713,0.022-2.572,0.022c-6.755,0-13.59-0.645-20.317-1.944c-4.698-0.894-8.649,3.572-7.19,8.129   c13.827,43.166,50.996,74.981,95.462,82.194c-36.903,24.783-79.899,37.853-124.626,37.853h-13.94c-4.308,0-7.942,2.793-9.034,6.953   c-1.08,4.093,0.905,8.423,4.573,10.56c50.414,29.339,107.91,44.84,166.311,44.84c51.114,0,98.933-10.142,142.121-30.153   c39.594-18.338,74.58-44.557,103.987-77.921c27.399-31.091,48.825-66.965,63.681-106.648c14.155-37.822,21.64-78.184,21.64-116.709   v-1.843c0-6.19,2.798-12.007,7.677-15.976c18.525-15.037,34.658-32.748,47.948-52.618   C688.121,213.427,682.587,206.853,676.815,209.408L676.815,209.408z" fill="#FFFFFF"/><path d="M175.333,325.91c-22.81-22.459-35.948-53.262-35.948-85.959c0-21.153,5.568-41.939,16.077-60.165   c-2.012-2.464-4.059-4.873-6.015-7.411c-2.804-3.629-8.197-3.188-10.441,0.865c-10.786,19.542-16.49,41.889-16.49,64.625   c0,28.18,8.683,55.043,24.189,76.954c0.379,0.124,0.752,0.237,1.125,0.441C156.452,320.054,165.734,323.638,175.333,325.91z" fill="#68CFE0"/><path d="M180.212,442.048c-3.544-0.351-7.095-0.859-10.611-1.571c-4.749-0.949-8.739,3.799-7.264,8.66   c12.991,42.805,46.394,75.105,87.141,85.598c8.519-4.251,16.806-9.033,24.794-14.393   C231.168,513.344,194.989,483.202,180.212,442.048z" fill="#68CFE0"/><path d="M439.678,590.394c-43.188,20.012-91.007,30.153-142.121,30.153c-57.457,0-114.021-15.037-163.846-43.472   c-0.271,0.012-0.548,0.022-0.825,0.022h-14.082c-4.353,0-8.022,2.985-9.119,7.417c-1.091,4.364,0.91,8.977,4.613,11.249   c50.911,31.272,108.984,47.813,167.962,47.813c51.623,0,99.911-10.82,143.529-32.154c39.983-19.537,75.314-47.496,105.016-83.054   c3.748-4.5,7.371-9.102,10.898-13.782C512.698,546.934,478.412,572.451,439.678,590.394z" fill="#68CFE0"/><path d="M186,430.019c6.727,1.3,13.562,1.944,20.317,1.944c0.859,0,1.718-0.011,2.572-0.022   c-42.183-19.276-70.437-61.869-70.397-109.863c-2.527-1.215-5.014-2.516-7.445-3.94c-4.211-2.471-9.401,0.712-9.463,5.806   c-0.532,45.93,22.046,87.33,57.186,110.586C179.613,431.545,182.598,429.374,186,430.019z" fill="#68CFE0"/><path d="M383.798,294.644c1.255,0,2.471-0.548,3.324-1.498c0.486-0.548,1.277-1.718,1.091-3.392   c-1.656-14.534-0.695-29.475,2.86-44.398c9.463-39.792,39.639-72.042,78.735-84.167c12.617-3.923,25.473-5.902,38.203-5.902   c17.36,0,34.308,3.816,49.842,10.859c-18.892-12.052-40.667-18.542-63.059-18.542c-12.855,0-25.834,2.114-38.582,6.297   c-39.485,12.928-69.95,47.304-79.515,89.718c-3.589,15.902-4.556,31.843-2.889,47.333c0.113,1.029-0.119,1.86-0.418,2.499   c3.324,0.413,6.636,0.87,9.983,1.176C383.51,294.644,383.663,294.644,383.798,294.644z" fill="#68CFE0"/></g></svg>